<?xml version="1.0" encoding="utf-8" standalone="no"?>
<!DOCTYPE svg PUBLIC "-//W3C//DTD SVG 1.1//EN"
  "http://www.w3.org/Graphics/SVG/1.1/DTD/svg11.dtd">
<svg xmlns:xlink="http://www.w3.org/1999/xlink" width="572.4pt" height="236.16pt" viewBox="0 0 572.4 236.16" xmlns="http://www.w3.org/2000/svg" version="1.1">
 <metadata>
  <rdf:RDF xmlns:dc="http://purl.org/dc/elements/1.1/" xmlns:cc="http://creativecommons.org/ns#" xmlns:rdf="http://www.w3.org/1999/02/22-rdf-syntax-ns#">
   <cc:Work>
    <dc:type rdf:resource="http://purl.org/dc/dcmitype/StillImage"/>
    <dc:date>2025-03-25T01:58:41.019278</dc:date>
    <dc:format>image/svg+xml</dc:format>
    <dc:creator>
     <cc:Agent>
      <dc:title>Matplotlib v3.7.0, https://matplotlib.org/</dc:title>
     </cc:Agent>
    </dc:creator>
   </cc:Work>
  </rdf:RDF>
 </metadata>
 <defs>
  <style type="text/css">*{stroke-linejoin: round; stroke-linecap: butt}</style>
 </defs>
 <g id="figure_1">
  <g id="patch_1">
   <path d="M 0 236.16 
L 572.4 236.16 
L 572.4 0 
L 0 0 
L 0 236.16 
z
" style="fill: none; opacity: 0"/>
  </g>
  <g id="axes_1">
   <g id="patch_2">
    <path d="M 7.2 228.96 
L 565.2 228.96 
L 565.2 7.2 
L 7.2 7.2 
L 7.2 228.96 
z
" style="fill: none; opacity: 0"/>
   </g>
   <g id="matplotlib.axis_1"/>
   <g id="matplotlib.axis_2"/>
   <g id="line2d_1">
    <path d="M 32.563636 86.061882 
L 34.331137 86.061882 
L 36.098638 112.150826 
L 37.866139 114.522591 
L 39.63364 95.548473 
L 41.40114 100.292002 
L 43.168641 119.26612 
L 44.936142 126.38165 
L 46.703643 112.150826 
L 48.471143 93.176239 
L 50.238644 93.176239 
L 52.006145 107.407297 
L 53.773646 105.035532 
L 55.541147 93.176239 
L 57.308647 95.548473 
L 59.076148 112.150826 
L 60.843649 112.150826 
L 62.61115 102.663767 
L 64.378651 102.663767 
L 66.146151 109.779061 
L 67.913652 112.150826 
L 69.681153 109.779061 
L 71.448654 102.663767 
L 73.216155 93.176239 
L 74.983655 100.292002 
L 76.751156 119.26612 
L 78.518657 126.38165 
L 80.286158 114.522591 
L 82.053659 109.779061 
L 83.821159 107.407297 
L 85.58866 100.292002 
L 87.356161 105.035532 
L 89.123662 128.752709 
L 90.891162 128.752709 
L 92.658663 100.292002 
L 94.426164 93.176239 
L 96.193665 95.548473 
L 97.961166 83.689651 
L 99.728666 88.432945 
L 101.496167 126.38165 
L 103.263668 140.611535 
L 105.031169 119.26612 
L 106.79867 95.548473 
L 108.56617 81.317415 
L 110.333671 83.689651 
L 112.101172 126.38165 
L 113.868673 140.611535 
L 115.636174 88.432945 
L 117.403674 78.946352 
L 119.171175 133.497176 
L 120.938676 135.868239 
L 122.706177 86.061882 
L 124.473678 88.432945 
L 126.241178 124.009415 
L 128.008679 121.638356 
L 129.77618 112.150826 
L 131.543681 109.779061 
L 133.311182 88.432945 
L 135.078682 95.548473 
L 136.846183 133.497176 
L 138.613684 121.638356 
L 140.381185 83.689651 
L 142.148685 102.663767 
L 143.916186 133.497176 
L 145.683687 128.752709 
L 147.451188 119.26612 
L 149.218689 95.548473 
L 150.986189 74.20306 
L 152.75369 93.176239 
L 154.521191 109.779061 
L 156.288692 74.20306 
L 158.056193 90.805178 
L 159.823693 164.330352 
L 161.591194 142.983764 
L 163.358695 64.715296 
L 165.126196 88.432945 
L 166.893697 140.611535 
L 168.661197 86.061882 
L 170.428698 48.113179 
L 172.196199 109.779061 
L 173.9637 152.471532 
L 175.731201 131.124945 
L 177.498701 107.407297 
L 179.266202 88.432945 
L 181.033703 93.176239 
L 182.801204 135.868239 
L 184.568704 124.009415 
L 186.336205 81.317415 
L 188.103706 126.38165 
L 189.871207 166.701412 
L 191.638708 81.317415 
L 193.406208 45.740946 
L 195.173709 142.983764 
L 196.94121 152.471532 
L 198.708711 62.34306 
L 200.476212 88.432945 
L 202.243712 147.72706 
L 204.011213 93.176239 
L 205.778714 81.317415 
L 207.546215 145.356 
L 209.313716 109.779061 
L 211.081216 45.740946 
L 212.848717 119.26612 
L 214.616218 176.189176 
L 216.383719 107.407297 
L 218.15122 67.087532 
L 219.91872 102.663767 
L 221.686221 105.035532 
L 223.453722 100.292002 
L 225.221223 124.009415 
L 226.988723 124.009415 
L 228.756224 95.548473 
L 230.523725 90.805178 
L 232.291226 95.548473 
L 235.826227 124.009415 
L 239.361229 90.805178 
L 241.12873 112.150826 
L 242.896231 121.638356 
L 244.663731 93.176239 
L 246.431232 88.432945 
L 248.198733 121.638356 
L 249.966234 140.611535 
L 251.733735 124.009415 
L 253.501235 83.689651 
L 255.268736 64.715296 
L 257.036237 105.035532 
L 258.803738 150.099296 
L 260.571239 126.38165 
L 262.338739 78.946352 
L 264.10624 93.176239 
L 265.873741 142.983764 
L 267.641242 128.752709 
L 269.408742 78.946352 
L 271.176243 78.946352 
L 272.943744 114.522591 
L 274.711245 131.124945 
L 276.478746 107.407297 
L 278.246246 81.317415 
L 280.013747 90.805178 
L 281.781248 135.868239 
L 283.548749 145.356 
L 285.31625 88.432945 
L 287.08375 59.972003 
L 288.851251 112.150826 
L 290.618752 150.099296 
L 292.386253 109.779061 
L 294.153754 81.317415 
L 295.921254 109.779061 
L 297.688755 140.611535 
L 299.456256 119.26612 
L 301.223757 83.689651 
L 302.991258 90.805178 
L 304.758758 124.009415 
L 306.526259 83.689651 
L 308.29376 17.28 
L 310.061261 88.432945 
L 311.828761 218.88 
L 313.596262 183.303528 
L 315.363763 48.113179 
L 317.131264 45.740946 
L 318.898765 124.009415 
L 320.666265 131.124945 
L 322.433766 105.035532 
L 324.201267 90.805178 
L 325.968768 83.689651 
L 327.736269 128.752709 
L 329.503769 183.303528 
L 331.27127 133.497176 
L 333.038771 57.599767 
L 334.806272 93.176239 
L 336.573773 147.72706 
L 338.341273 90.805178 
L 340.108774 43.369881 
L 341.876275 109.779061 
L 343.643776 169.073645 
L 345.411277 128.752709 
L 347.178777 69.458591 
L 348.946278 71.830827 
L 350.713779 124.009415 
L 352.48128 152.471532 
L 354.24878 119.26612 
L 356.016281 71.830827 
L 357.783782 93.176239 
L 359.551283 133.497176 
L 361.318784 105.035532 
L 363.086284 59.972003 
L 364.853785 83.689651 
L 366.621286 131.124945 
L 368.388787 126.38165 
L 370.156288 86.061882 
L 371.923788 74.20306 
L 373.691289 100.292002 
L 375.45879 131.124945 
L 377.226291 145.356 
L 378.993792 119.26612 
L 380.761292 78.946352 
L 382.528793 88.432945 
L 384.296294 131.124945 
L 386.063795 124.009415 
L 387.831296 90.805178 
L 389.598796 109.779061 
L 391.366297 142.983764 
L 393.133798 119.26612 
L 394.901299 86.061882 
L 396.668799 105.035532 
L 398.4363 126.38165 
L 400.203801 119.26612 
L 401.971302 107.407297 
L 403.738803 93.176239 
L 405.506303 83.689651 
L 407.273804 107.407297 
L 409.041305 124.009415 
L 410.808806 105.035532 
L 412.576307 109.779061 
L 414.343807 142.983764 
L 416.111308 114.522591 
L 417.878809 52.856472 
L 419.64631 64.715296 
L 421.413811 121.638356 
L 423.181311 140.611535 
L 424.948812 112.150826 
L 426.716313 81.317415 
L 428.483814 62.34306 
L 430.251315 93.176239 
L 432.018815 142.983764 
L 433.786316 135.868239 
L 435.553817 107.407297 
L 437.321318 109.779061 
L 439.088818 109.779061 
L 440.856319 88.432945 
L 442.62382 93.176239 
L 444.391321 119.26612 
L 446.158822 112.150826 
L 447.926322 93.176239 
L 449.693823 102.663767 
L 451.461324 121.638356 
L 453.228825 121.638356 
L 454.996326 124.009415 
L 456.763826 124.009415 
L 458.531327 109.779061 
L 460.298828 100.292002 
L 462.066329 109.779061 
L 463.83383 124.009415 
L 465.60133 119.26612 
L 467.368831 105.035532 
L 469.136332 105.035532 
L 470.903833 119.26612 
L 472.671334 119.26612 
L 476.206335 86.061882 
L 477.973836 78.946352 
L 479.741337 64.715296 
L 481.508838 69.458591 
L 483.276338 119.26612 
L 485.043839 154.842591 
L 486.81134 135.868239 
L 488.578841 112.150826 
L 490.346341 126.38165 
L 492.113842 126.38165 
L 493.881343 83.689651 
L 495.648844 67.087532 
L 497.416345 102.663767 
L 499.183845 126.38165 
L 502.718847 74.20306 
L 504.486348 90.805178 
L 506.253849 121.638356 
L 508.021349 128.752709 
L 509.78885 119.26612 
L 511.556351 102.663767 
L 513.323852 90.805178 
L 515.091353 100.292002 
L 516.858853 121.638356 
L 518.626354 128.752709 
L 520.393855 107.407297 
L 522.161356 90.805178 
L 523.928857 102.663767 
L 525.696357 119.26612 
L 527.463858 119.26612 
L 529.231359 124.009415 
L 530.99886 135.868239 
L 532.76636 114.522591 
L 534.533861 78.946352 
L 536.301362 81.317415 
L 538.068863 107.407297 
L 539.836364 109.779061 
L 539.836364 109.779061 
" clip-path="url(#pbe4fb53355)" style="fill: none; stroke: #1f77b4; stroke-width: 1.5; stroke-linecap: square"/>
   </g>
  </g>
 </g>
 <defs>
  <clipPath id="pbe4fb53355">
   <rect x="7.2" y="7.2" width="558" height="221.76"/>
  </clipPath>
 </defs>
</svg>
