<?xml version="1.0" encoding="utf-8" standalone="no"?>
<!DOCTYPE svg PUBLIC "-//W3C//DTD SVG 1.1//EN"
  "http://www.w3.org/Graphics/SVG/1.1/DTD/svg11.dtd">
<svg xmlns:xlink="http://www.w3.org/1999/xlink" width="572.4pt" height="236.16pt" viewBox="0 0 572.4 236.16" xmlns="http://www.w3.org/2000/svg" version="1.1">
 <metadata>
  <rdf:RDF xmlns:dc="http://purl.org/dc/elements/1.1/" xmlns:cc="http://creativecommons.org/ns#" xmlns:rdf="http://www.w3.org/1999/02/22-rdf-syntax-ns#">
   <cc:Work>
    <dc:type rdf:resource="http://purl.org/dc/dcmitype/StillImage"/>
    <dc:date>2025-03-25T01:58:36.883153</dc:date>
    <dc:format>image/svg+xml</dc:format>
    <dc:creator>
     <cc:Agent>
      <dc:title>Matplotlib v3.7.0, https://matplotlib.org/</dc:title>
     </cc:Agent>
    </dc:creator>
   </cc:Work>
  </rdf:RDF>
 </metadata>
 <defs>
  <style type="text/css">*{stroke-linejoin: round; stroke-linecap: butt}</style>
 </defs>
 <g id="figure_1">
  <g id="patch_1">
   <path d="M 0 236.16 
L 572.4 236.16 
L 572.4 0 
L 0 0 
L 0 236.16 
z
" style="fill: none; opacity: 0"/>
  </g>
  <g id="axes_1">
   <g id="patch_2">
    <path d="M 7.2 228.96 
L 565.2 228.96 
L 565.2 7.2 
L 7.2 7.2 
L 7.2 228.96 
z
" style="fill: none; opacity: 0"/>
   </g>
   <g id="matplotlib.axis_1"/>
   <g id="matplotlib.axis_2"/>
   <g id="line2d_1">
    <path d="M 32.563636 129.277419 
L 34.331137 82.441933 
L 36.098638 86.515372 
L 37.866139 123.168267 
L 39.63364 117.060124 
L 41.40114 76.333787 
L 43.168641 80.406219 
L 44.936142 117.060124 
L 46.703643 133.349852 
L 48.471143 117.060124 
L 50.238644 86.515372 
L 52.006145 76.333787 
L 53.773646 90.587804 
L 55.541147 108.914453 
L 57.308647 108.914453 
L 59.076148 102.805503 
L 60.843649 106.878136 
L 62.61115 115.023403 
L 64.378651 110.95077 
L 66.146151 100.769186 
L 67.913652 94.660236 
L 69.681153 104.84182 
L 71.448654 110.95077 
L 73.216155 100.769186 
L 74.983655 94.660236 
L 76.751156 108.914453 
L 78.518657 104.84182 
L 80.286158 80.406219 
L 82.053659 88.551083 
L 83.821159 129.277419 
L 85.58866 135.386571 
L 87.356161 102.805503 
L 89.123662 88.551083 
L 92.658663 80.406219 
L 94.426164 110.95077 
L 96.193665 139.459 
L 97.961166 110.95077 
L 99.728666 88.551083 
L 101.496167 102.805503 
L 103.263668 100.769186 
L 105.031169 92.623516 
L 106.79867 123.168267 
L 108.56617 139.459 
L 110.333671 104.84182 
L 112.101172 80.406219 
L 113.868673 94.660236 
L 115.636174 125.204986 
L 117.403674 137.42329 
L 120.938676 108.914453 
L 122.706177 110.95077 
L 124.473678 98.732869 
L 126.241178 74.297068 
L 128.008679 94.660236 
L 129.77618 135.386571 
L 131.543681 133.349852 
L 133.311182 102.805503 
L 135.078682 88.551083 
L 136.846183 90.587804 
L 138.613684 100.769186 
L 140.381185 102.805503 
L 142.148685 82.441933 
L 143.916186 72.260349 
L 145.683687 90.587804 
L 147.451188 98.732869 
L 149.218689 102.805503 
L 150.986189 129.277419 
L 152.75369 135.386571 
L 154.521191 98.732869 
L 156.288692 76.333787 
L 158.056193 82.441933 
L 159.823693 90.587804 
L 161.591194 115.023403 
L 163.358695 129.277419 
L 165.126196 100.769186 
L 166.893697 86.515372 
L 168.661197 119.095835 
L 170.428698 115.023403 
L 172.196199 90.587804 
L 173.9637 139.459 
L 175.731201 174.077194 
L 177.498701 100.769186 
L 179.266202 55.969615 
L 181.033703 104.84182 
L 182.801204 121.132555 
L 184.568704 86.515372 
L 186.336205 92.623516 
L 188.103706 117.060124 
L 189.871207 108.914453 
L 191.638708 106.878136 
L 193.406208 115.023403 
L 195.173709 108.914453 
L 196.94121 117.060124 
L 198.708711 119.095835 
L 200.476212 76.333787 
L 202.243712 43.75232 
L 204.011213 62.078767 
L 207.546215 155.749739 
L 209.313716 159.822175 
L 211.081216 108.914453 
L 212.848717 80.406219 
L 214.616218 100.769186 
L 216.383719 104.84182 
L 218.15122 100.769186 
L 219.91872 108.914453 
L 221.686221 100.769186 
L 223.453722 82.441933 
L 225.221223 127.241707 
L 226.988723 178.14963 
L 228.756224 137.42329 
L 230.523725 70.224638 
L 232.291226 70.224638 
L 234.058727 100.769186 
L 235.826227 106.878136 
L 237.593728 94.660236 
L 239.361229 84.478652 
L 241.12873 94.660236 
L 242.896231 115.023403 
L 244.663731 102.805503 
L 246.431232 88.551083 
L 248.198733 104.84182 
L 249.966234 115.023403 
L 251.733735 90.587804 
L 253.501235 84.478652 
L 255.268736 98.732869 
L 257.036237 92.623516 
L 258.803738 98.732869 
L 260.571239 123.168267 
L 262.338739 123.168267 
L 264.10624 102.805503 
L 265.873741 110.95077 
L 267.641242 125.204986 
L 269.408742 108.914453 
L 271.176243 102.805503 
L 272.943744 110.95077 
L 274.711245 94.660236 
L 276.478746 86.515372 
L 278.246246 115.023403 
L 280.013747 133.349852 
L 281.781248 119.095835 
L 283.548749 92.623516 
L 285.31625 58.006334 
L 287.08375 64.115486 
L 288.851251 157.786461 
L 290.618752 218.88 
L 292.386253 123.168267 
L 294.153754 17.28 
L 295.921254 72.260349 
L 297.688755 157.786461 
L 299.456256 117.060124 
L 301.223757 62.078767 
L 304.758758 155.749739 
L 308.29376 47.82475 
L 311.828761 117.060124 
L 313.596262 88.551083 
L 315.363763 76.333787 
L 317.131264 110.95077 
L 318.898765 115.023403 
L 320.666265 94.660236 
L 322.433766 115.023403 
L 324.201267 123.168267 
L 325.968768 94.660236 
L 327.736269 100.769186 
L 329.503769 115.023403 
L 331.27127 80.406219 
L 333.038771 70.224638 
L 334.806272 123.168267 
L 336.573773 147.604877 
L 338.341273 115.023403 
L 340.108774 94.660236 
L 341.876275 106.878136 
L 343.643776 106.878136 
L 345.411277 98.732869 
L 347.178777 100.769186 
L 348.946278 115.023403 
L 350.713779 121.132555 
L 354.24878 92.623516 
L 356.016281 108.914453 
L 357.783782 117.060124 
L 359.551283 94.660236 
L 361.318784 92.623516 
L 363.086284 119.095835 
L 364.853785 123.168267 
L 366.621286 104.84182 
L 368.388787 98.732869 
L 371.923788 110.95077 
L 373.691289 108.914453 
L 375.45879 92.623516 
L 377.226291 82.441933 
L 380.761292 119.095835 
L 384.296294 102.805503 
L 386.063795 102.805503 
L 387.831296 98.732869 
L 389.598796 98.732869 
L 391.366297 100.769186 
L 393.133798 98.732869 
L 394.901299 117.060124 
L 396.668799 139.459 
L 398.4363 117.060124 
L 400.203801 82.441933 
L 401.971302 90.587804 
L 403.738803 100.769186 
L 405.506303 88.551083 
L 407.273804 117.060124 
L 409.041305 157.786461 
L 410.808806 115.023403 
L 412.576307 29.498303 
L 414.343807 31.534017 
L 416.111308 100.769186 
L 417.878809 127.241707 
L 419.64631 115.023403 
L 421.413811 125.204986 
L 423.181311 147.604877 
L 424.948812 119.095835 
L 426.716313 76.333787 
L 428.483814 84.478652 
L 430.251315 119.095835 
L 432.018815 119.095835 
L 433.786316 102.805503 
L 435.553817 98.732869 
L 437.321318 104.84182 
L 440.856319 108.914453 
L 442.62382 104.84182 
L 444.391321 98.732869 
L 446.158822 110.95077 
L 447.926322 127.241707 
L 449.693823 115.023403 
L 451.461324 100.769186 
L 453.228825 117.060124 
L 454.996326 121.132555 
L 456.763826 88.551083 
L 458.531327 84.478652 
L 460.298828 123.168267 
L 462.066329 135.386571 
L 463.83383 102.805503 
L 465.60133 84.478652 
L 467.368831 90.587804 
L 469.136332 102.805503 
L 470.903833 121.132555 
L 472.671334 121.132555 
L 474.438834 80.406219 
L 476.206335 45.788028 
L 477.973836 62.078767 
L 479.741337 92.623516 
L 481.508838 127.241707 
L 483.276338 165.931321 
L 485.043839 163.895613 
L 486.81134 106.878136 
L 488.578841 62.078767 
L 490.346341 58.006334 
L 492.113842 62.078767 
L 493.881343 74.297068 
L 495.648844 108.914453 
L 497.416345 129.277419 
L 499.183845 127.241707 
L 500.951346 135.386571 
L 502.718847 129.277419 
L 504.486348 98.732869 
L 506.253849 90.587804 
L 508.021349 125.204986 
L 509.78885 137.42329 
L 511.556351 110.95077 
L 513.323852 104.84182 
L 515.091353 119.095835 
L 516.858853 115.023403 
L 518.626354 90.587804 
L 520.393855 76.333787 
L 522.161356 74.297068 
L 523.928857 84.478652 
L 525.696357 108.914453 
L 527.463858 119.095835 
L 529.231359 104.84182 
L 530.99886 102.805503 
L 532.76636 115.023403 
L 534.533861 108.914453 
L 536.301362 90.587804 
L 538.068863 98.732869 
L 539.836364 123.168267 
L 539.836364 123.168267 
" clip-path="url(#p0b5b88d7be)" style="fill: none; stroke: #1f77b4; stroke-width: 1.5; stroke-linecap: square"/>
   </g>
  </g>
 </g>
 <defs>
  <clipPath id="p0b5b88d7be">
   <rect x="7.2" y="7.2" width="558" height="221.76"/>
  </clipPath>
 </defs>
</svg>
