<?xml version="1.0" encoding="utf-8" standalone="no"?>
<!DOCTYPE svg PUBLIC "-//W3C//DTD SVG 1.1//EN"
  "http://www.w3.org/Graphics/SVG/1.1/DTD/svg11.dtd">
<svg xmlns:xlink="http://www.w3.org/1999/xlink" width="572.4pt" height="236.16pt" viewBox="0 0 572.4 236.16" xmlns="http://www.w3.org/2000/svg" version="1.1">
 <metadata>
  <rdf:RDF xmlns:dc="http://purl.org/dc/elements/1.1/" xmlns:cc="http://creativecommons.org/ns#" xmlns:rdf="http://www.w3.org/1999/02/22-rdf-syntax-ns#">
   <cc:Work>
    <dc:type rdf:resource="http://purl.org/dc/dcmitype/StillImage"/>
    <dc:date>2025-03-25T01:58:26.729910</dc:date>
    <dc:format>image/svg+xml</dc:format>
    <dc:creator>
     <cc:Agent>
      <dc:title>Matplotlib v3.7.0, https://matplotlib.org/</dc:title>
     </cc:Agent>
    </dc:creator>
   </cc:Work>
  </rdf:RDF>
 </metadata>
 <defs>
  <style type="text/css">*{stroke-linejoin: round; stroke-linecap: butt}</style>
 </defs>
 <g id="figure_1">
  <g id="patch_1">
   <path d="M 0 236.16 
L 572.4 236.16 
L 572.4 0 
L 0 0 
L 0 236.16 
z
" style="fill: none; opacity: 0"/>
  </g>
  <g id="axes_1">
   <g id="patch_2">
    <path d="M 7.2 228.96 
L 565.2 228.96 
L 565.2 7.2 
L 7.2 7.2 
L 7.2 228.96 
z
" style="fill: none; opacity: 0"/>
   </g>
   <g id="matplotlib.axis_1"/>
   <g id="matplotlib.axis_2"/>
   <g id="line2d_1">
    <path d="M 32.563636 113.040248 
L 34.331137 72.71975 
L 36.098638 72.71975 
L 37.866139 130.679999 
L 39.63364 135.719749 
L 41.40114 90.360746 
L 43.168641 95.400497 
L 44.936142 133.200498 
L 46.703643 120.600248 
L 48.471143 95.400497 
L 50.238644 110.520248 
L 52.006145 128.160747 
L 55.541147 92.879997 
L 57.308647 105.480248 
L 59.076148 133.200498 
L 60.843649 138.240248 
L 62.61115 125.640248 
L 64.378651 120.600248 
L 66.146151 120.600248 
L 67.913652 97.919747 
L 69.681153 95.400497 
L 71.448654 120.600248 
L 73.216155 128.160747 
L 74.983655 105.480248 
L 76.751156 92.879997 
L 78.518657 100.440248 
L 80.286158 125.640248 
L 82.053659 135.719749 
L 83.821159 118.080247 
L 85.58866 108.000248 
L 87.356161 115.560247 
L 89.123662 95.400497 
L 90.891162 67.68 
L 92.658663 108.000248 
L 94.426164 158.400499 
L 96.193665 130.679999 
L 97.961166 90.360746 
L 99.728666 113.040248 
L 101.496167 143.280002 
L 103.263668 128.160747 
L 105.031169 95.400497 
L 106.79867 92.879997 
L 108.56617 110.520248 
L 110.333671 115.560247 
L 112.101172 110.520248 
L 113.868673 118.080247 
L 115.636174 135.719749 
L 117.403674 143.280002 
L 119.171175 128.160747 
L 120.938676 87.840246 
L 122.706177 75.240249 
L 124.473678 120.600248 
L 126.241178 153.360749 
L 128.008679 105.480248 
L 129.77618 65.159498 
L 131.543681 105.480248 
L 133.311182 153.360749 
L 135.078682 125.640248 
L 136.846183 75.240249 
L 138.613684 90.360746 
L 140.381185 138.240248 
L 142.148685 118.080247 
L 143.916186 70.200499 
L 145.683687 110.520248 
L 147.451188 158.400499 
L 149.218689 105.480248 
L 150.986189 70.200499 
L 152.75369 110.520248 
L 154.521191 95.400497 
L 156.288692 67.68 
L 158.056193 138.240248 
L 159.823693 178.560747 
L 161.591194 110.520248 
L 163.358695 100.440248 
L 165.126196 140.760748 
L 166.893697 113.040248 
L 168.661197 110.520248 
L 170.428698 143.280002 
L 172.196199 113.040248 
L 173.9637 77.760747 
L 175.731201 110.520248 
L 177.498701 110.520248 
L 179.266202 100.440248 
L 181.033703 150.840247 
L 182.801204 160.920998 
L 184.568704 133.200498 
L 186.336205 143.280002 
L 188.103706 100.440248 
L 189.871207 17.28 
L 191.638708 47.519752 
L 193.406208 133.200498 
L 195.173709 128.160747 
L 196.94121 128.160747 
L 198.708711 171.000499 
L 200.476212 138.240248 
L 202.243712 90.360746 
L 204.011213 95.400497 
L 205.778714 97.919747 
L 207.546215 97.919747 
L 209.313716 130.679999 
L 211.081216 130.679999 
L 212.848717 100.440248 
L 214.616218 113.040248 
L 216.383719 113.040248 
L 218.15122 77.760747 
L 219.91872 97.919747 
L 221.686221 135.719749 
L 223.453722 125.640248 
L 225.221223 108.000248 
L 226.988723 97.919747 
L 228.756224 82.800498 
L 230.523725 95.400497 
L 232.291226 110.520248 
L 234.058727 97.919747 
L 235.826227 153.360749 
L 237.593728 218.88 
L 239.361229 133.200498 
L 241.12873 17.28 
L 242.896231 75.240249 
L 244.663731 173.520994 
L 246.431232 135.719749 
L 248.198733 72.71975 
L 249.966234 82.800498 
L 251.733735 100.440248 
L 253.501235 110.520248 
L 255.268736 113.040248 
L 257.036237 130.679999 
L 258.803738 176.040252 
L 260.571239 160.920998 
L 262.338739 70.200499 
L 264.10624 60.119748 
L 265.873741 138.240248 
L 267.641242 143.280002 
L 269.408742 85.319749 
L 271.176243 87.840246 
L 272.943744 128.160747 
L 274.711245 138.240248 
L 276.478746 130.679999 
L 278.246246 105.480248 
L 280.013747 85.319749 
L 281.781248 110.520248 
L 283.548749 133.200498 
L 285.31625 110.520248 
L 287.08375 105.480248 
L 288.851251 140.760748 
L 290.618752 125.640248 
L 292.386253 55.080001 
L 294.153754 67.68 
L 295.921254 148.319752 
L 297.688755 140.760748 
L 299.456256 77.760747 
L 301.223757 118.080247 
L 302.991258 178.560747 
L 304.758758 108.000248 
L 306.526259 24.840249 
L 308.29376 77.760747 
L 310.061261 158.400499 
L 311.828761 133.200498 
L 313.596262 90.360746 
L 317.131264 176.040252 
L 318.898765 128.160747 
L 320.666265 62.64025 
L 322.433766 90.360746 
L 324.201267 140.760748 
L 325.968768 115.560247 
L 327.736269 77.760747 
L 329.503769 108.000248 
L 331.27127 128.160747 
L 333.038771 113.040248 
L 334.806272 118.080247 
L 336.573773 140.760748 
L 338.341273 135.719749 
L 340.108774 118.080247 
L 341.876275 108.000248 
L 343.643776 92.879997 
L 345.411277 87.840246 
L 348.946278 113.040248 
L 350.713779 118.080247 
L 352.48128 113.040248 
L 354.24878 100.440248 
L 356.016281 108.000248 
L 357.783782 125.640248 
L 359.551283 113.040248 
L 361.318784 90.360746 
L 363.086284 95.400497 
L 364.853785 120.600248 
L 366.621286 125.640248 
L 368.388787 113.040248 
L 371.923788 118.080247 
L 373.691289 110.520248 
L 375.45879 92.879997 
L 377.226291 105.480248 
L 378.993792 138.240248 
L 380.761292 153.360749 
L 382.528793 120.600248 
L 384.296294 105.480248 
L 386.063795 115.560247 
L 387.831296 115.560247 
L 389.598796 105.480248 
L 391.366297 110.520248 
L 393.133798 118.080247 
L 394.901299 115.560247 
L 398.4363 155.879997 
L 400.203801 118.080247 
L 401.971302 47.519752 
L 403.738803 32.400498 
L 405.506303 92.879997 
L 407.273804 140.760748 
L 409.041305 118.080247 
L 410.808806 100.440248 
L 412.576307 153.360749 
L 414.343807 176.040252 
L 416.111308 92.879997 
L 417.878809 45.0005 
L 419.64631 118.080247 
L 421.413811 173.520994 
L 423.181311 125.640248 
L 424.948812 87.840246 
L 426.716313 115.560247 
L 428.483814 128.160747 
L 430.251315 115.560247 
L 432.018815 113.040248 
L 433.786316 105.480248 
L 435.553817 92.879997 
L 437.321318 100.440248 
L 439.088818 105.480248 
L 440.856319 95.400497 
L 442.62382 108.000248 
L 444.391321 125.640248 
L 447.926322 105.480248 
L 449.693823 113.040248 
L 451.461324 133.200498 
L 453.228825 130.679999 
L 454.996326 108.000248 
L 456.763826 92.879997 
L 458.531327 92.879997 
L 460.298828 105.480248 
L 462.066329 133.200498 
L 463.83383 153.360749 
L 465.60133 133.200498 
L 467.368831 108.000248 
L 469.136332 105.480248 
L 470.903833 100.440248 
L 472.671334 85.319749 
L 474.438834 92.879997 
L 476.206335 138.240248 
L 477.973836 163.44025 
L 479.741337 143.280002 
L 481.508838 110.520248 
L 483.276338 97.919747 
L 485.043839 105.480248 
L 486.81134 115.560247 
L 488.578841 118.080247 
L 490.346341 100.440248 
L 492.113842 67.68 
L 493.881343 62.64025 
L 495.648844 105.480248 
L 497.416345 160.920998 
L 499.183845 165.960748 
L 502.718847 62.64025 
L 504.486348 72.71975 
L 506.253849 113.040248 
L 508.021349 105.480248 
L 509.78885 82.800498 
L 511.556351 115.560247 
L 513.323852 163.44025 
L 515.091353 155.879997 
L 516.858853 128.160747 
L 518.626354 128.160747 
L 520.393855 118.080247 
L 522.161356 92.879997 
L 523.928857 97.919747 
L 525.696357 128.160747 
L 527.463858 125.640248 
L 529.231359 108.000248 
L 530.99886 108.000248 
L 532.76636 118.080247 
L 534.533861 120.600248 
L 536.301362 108.000248 
L 538.068863 92.879997 
L 539.836364 95.400497 
L 539.836364 95.400497 
" clip-path="url(#p97ab5dbbe5)" style="fill: none; stroke: #1f77b4; stroke-width: 1.5; stroke-linecap: square"/>
   </g>
  </g>
 </g>
 <defs>
  <clipPath id="p97ab5dbbe5">
   <rect x="7.2" y="7.2" width="558" height="221.76"/>
  </clipPath>
 </defs>
</svg>
